<svg class="border shadow-md dark:border-slate-700" viewBox="0 0 1267.2 712.8" style="width: 1267.2px; height: 712.8px;" xmlns="http://www.w3.org/2000/svg" preserveAspectRatio="none"><rect class="bg" id="bg" x="0" y="0" width="1267.2" height="712.8" fill="#000000"/><path d="M 0 -71.28 L 0 -71.28&#xA;                L 90.00 -33.28&#xA;                L 253.44 -71.28 L 253.44 -71.28&#xA;                L 337.92 -35.64&#xA;                L 506.88 -71.28 L 506.88 -71.28&#xA;                L 591.36 -35.64&#xA;                L 760.3199999999999 -71.28 L 760.3199999999999 -71.28&#xA;                L 936.32 -35.64&#xA;                L 1013.76 -71.28 L 1013.76 -71.28&#xA;                L 1121.76 -35.64&#xA;                L 1267.2 -71.28 L 1267.2 -71.28&#xA;                L 1351.68 -18.28&#xA;                L 1520.64 -71.28  V 712.80 H 0 V -71.28 Z" fill="#232D3F"/><path d="M 0 0 L 0 0.00&#xA;                L 84.48 68.00&#xA;                L 253.44 0.00 L 253.44 0.00&#xA;                L 377.44 35.64&#xA;                L 506.88 0.00 L 506.88 0.00&#xA;                L 648.88 57.00&#xA;                L 760.3199999999999 0.00 L 760.3199999999999 0.00&#xA;                L 926.32 35.64&#xA;                L 1013.76 0.00 L 1013.76 0.00&#xA;                L 1162.76 35.64&#xA;                L 1267.2 0.00 L 1267.2 0.00&#xA;                L 1439.20 35.64&#xA;                L 1520.64 0.00  V 712.80 H 0 V 0.00 Z" fill="#212a3b"/><path d="M 0 71.28 L 0 71.28&#xA;                L 84.48 106.92&#xA;                L 253.44 71.28 L 253.44 71.28&#xA;                L 337.92 136.28&#xA;                L 506.88 71.28 L 506.88 71.28&#xA;                L 591.36 106.92&#xA;                L 760.3199999999999 71.28 L 760.3199999999999 71.28&#xA;                L 844.80 106.92&#xA;                L 1013.76 71.28 L 1013.76 71.28&#xA;                L 1106.76 112.28&#xA;                L 1267.2 71.28 L 1267.2 71.28&#xA;                L 1351.68 106.92&#xA;                L 1520.64 71.28  V 712.80 H 0 V 71.28 Z" fill="#1f2737"/><path d="M 0 142.56 L 0 142.56&#xA;                L 92.00 178.20&#xA;                L 253.44 142.56 L 253.44 142.56&#xA;                L 337.92 178.20&#xA;                L 506.88 142.56 L 506.88 142.56&#xA;                L 637.88 178.20&#xA;                L 760.3199999999999 142.56 L 760.3199999999999 142.56&#xA;                L 862.32 178.20&#xA;                L 1013.76 142.56 L 1013.76 142.56&#xA;                L 1136.76 178.20&#xA;                L 1267.2 142.56 L 1267.2 142.56&#xA;                L 1390.20 200.56&#xA;                L 1520.64 142.56  V 712.80 H 0 V 142.56 Z" fill="#1d2433"/><path d="M 0 213.84 L 0 213.84&#xA;                L 119.00 274.84&#xA;                L 253.44 213.84 L 253.44 213.84&#xA;                L 384.44 249.48&#xA;                L 506.88 213.84 L 506.88 213.84&#xA;                L 591.36 249.48&#xA;                L 760.3199999999999 213.84 L 760.3199999999999 213.84&#xA;                L 854.32 275.84&#xA;                L 1013.76 213.84 L 1013.76 213.84&#xA;                L 1172.76 249.48&#xA;                L 1267.2 213.84 L 1267.2 213.84&#xA;                L 1372.20 249.48&#xA;                L 1520.64 213.84  V 712.80 H 0 V 213.84 Z" fill="#1b212f"/><path d="M 0 285.12 L 0 285.12&#xA;                L 84.48 326.12&#xA;                L 253.44 285.12 L 253.44 285.12&#xA;                L 416.44 355.12&#xA;                L 506.88 285.12 L 506.88 285.12&#xA;                L 646.88 323.12&#xA;                L 760.3199999999999 285.12 L 760.3199999999999 285.12&#xA;                L 922.32 320.76&#xA;                L 1013.76 285.12 L 1013.76 285.12&#xA;                L 1098.24 331.12&#xA;                L 1267.2 285.12 L 1267.2 285.12&#xA;                L 1442.20 320.76&#xA;                L 1520.64 285.12  V 712.80 H 0 V 285.12 Z" fill="#191e2b"/><path d="M 0 356.4 L 0 356.40&#xA;                L 95.00 392.04&#xA;                L 253.44 356.40 L 253.44 356.40&#xA;                L 401.44 392.04&#xA;                L 506.88 356.40 L 506.88 356.40&#xA;                L 591.36 417.40&#xA;                L 760.3199999999999 356.40 L 760.3199999999999 356.40&#xA;                L 938.32 392.04&#xA;                L 1013.76 356.40 L 1013.76 356.40&#xA;                L 1098.24 392.04&#xA;                L 1267.2 356.40 L 1267.2 356.40&#xA;                L 1351.68 393.40&#xA;                L 1520.64 356.40  V 712.80 H 0 V 356.40 Z" fill="#171b27"/><path d="M 0 427.68 L 0 427.68&#xA;                L 84.48 473.68&#xA;                L 253.44 427.68 L 253.44 427.68&#xA;                L 337.92 493.68&#xA;                L 506.88 427.68 L 506.88 427.68&#xA;                L 591.36 463.32&#xA;                L 760.3199999999999 427.68 L 760.3199999999999 427.68&#xA;                L 844.80 484.68&#xA;                L 1013.76 427.68 L 1013.76 427.68&#xA;                L 1098.24 463.32&#xA;                L 1267.2 427.68 L 1267.2 427.68&#xA;                L 1436.20 463.32&#xA;                L 1520.64 427.68  V 712.80 H 0 V 427.68 Z" fill="#151823"/><path d="M 0 498.96000000000004 L 0 498.96&#xA;                L 84.48 534.60&#xA;                L 253.44 498.96 L 253.44 498.96&#xA;                L 381.44 549.96&#xA;                L 506.88 498.96 L 506.88 498.96&#xA;                L 591.36 534.60&#xA;                L 760.3199999999999 498.96 L 760.3199999999999 498.96&#xA;                L 929.32 553.96&#xA;                L 1013.76 498.96 L 1013.76 498.96&#xA;                L 1156.76 540.96&#xA;                L 1267.2 498.96 L 1267.2 498.96&#xA;                L 1377.20 534.60&#xA;                L 1520.64 498.96  V 712.80 H 0 V 498.96 Z" fill="#13151f"/><path d="M 0 570.24 L 0 570.24&#xA;                L 181.00 635.24&#xA;                L 253.44 570.24 L 253.44 570.24&#xA;                L 337.92 605.88&#xA;                L 506.88 570.24 L 506.88 570.24&#xA;                L 633.88 610.24&#xA;                L 760.3199999999999 570.24 L 760.3199999999999 570.24&#xA;                L 872.32 638.24&#xA;                L 1013.76 570.24 L 1013.76 570.24&#xA;                L 1188.76 605.88&#xA;                L 1267.2 570.24 L 1267.2 570.24&#xA;                L 1365.20 605.88&#xA;                L 1520.64 570.24  V 712.80 H 0 V 570.24 Z" fill="#11121b"/><path d="M 0 641.52 L 0 641.52&#xA;                L 84.48 711.52&#xA;                L 253.44 641.52 L 253.44 641.52&#xA;                L 337.92 677.16&#xA;                L 506.88 641.52 L 506.88 641.52&#xA;                L 667.88 677.16&#xA;                L 760.3199999999999 641.52 L 760.3199999999999 641.52&#xA;                L 936.32 677.16&#xA;                L 1013.76 641.52 L 1013.76 641.52&#xA;                L 1115.76 677.16&#xA;                L 1267.2 641.52 L 1267.2 641.52&#xA;                L 1429.20 708.52&#xA;                L 1520.64 641.52  V 712.80 H 0 V 641.52 Z" fill="#0f0f17"/></svg>